<svg viewBox="0 0 1024 1024" xmlns="http://www.w3.org/2000/svg">
  <path d="M388.8384 482.304l-58.3296 58.304a108.1472 108.1472 0 1 0 152.9344 152.9472l58.3168-58.3168-152.9216-152.9472z" fill="#0EA6E5"/>
  <path d="M769.4592 254.5536c-83.4176-83.4048-218.6496-83.4048-302.0544 0l-105.728 105.728-105.7408 105.728a213.5936 213.5936 0 1 0 302.0544 302.0672l105.728-105.728 105.728-105.7408a213.5552 213.5552 0 0 0 0-302.0544zM508.2752 718.336c-55.9488 55.9488-146.6624 55.9488-202.6112 0-55.936-55.936-55.936-146.6496 0-202.5984l80.8704-80.8704 202.5984 202.6112-80.8576 80.8576z m211.456-211.456l-80.8576 80.8576-202.624-202.5984 80.8704-80.8704c55.936-55.9488 146.6624-55.9616 202.6112 0 55.9488 55.936 55.9616 146.6496 0 202.6112z" fill="#0EA6E5" opacity=".82"/>
</svg> 